{"title":"The Starving Games 2013 BRRip 480p x264 AAC - VYTO [P2PDL]","uid":9193482,"size":285907816,"categoryP":"video","categoryS":"movies","magnet":"?xt=urn:btih:99987f96c36fcebca3125c42fc273144b344f47a&amp;dn=The+Starving+Games+2013+BRRip+480p+x264+AAC+-+VYTO+%5BP2PDL%5D&amp;tr=udp%3A%2F%2Ftracker.openbittorrent.com%3A80&amp;tr=udp%3A%2F%2Fopen.demonii.com%3A1337&amp;tr=udp%3A%2F%2Ftracker.coppersurfer.tk%3A6969&amp;tr=udp%3A%2F%2Fexodus.desync.com%3A6969","seeders":1,"leechers":0,"uploader":"Vitamin_X","files":-1,"time":1384440223,"description":"_______ Visit us at our Semi Public Bittorrent Community ________\n  &lt;a href=&quot;\nhttp://p2pdl.com&quot; rel=&quot;nofollow&quot; target=&quot;_NEW&quot;&gt;\nhttp://p2pdl.com&lt;/a&gt;  _____________________________ &lt;a href=&quot; http://p2pdl.com&quot; rel=&quot;nofollow&quot; target=&quot;_NEW&quot;&gt; http://p2pdl.com&lt;/a&gt;\n\n\nThe Starving Games 2013 BRRip 480p x264 AAC - VYTO\n\nGenre: Comedy\nPlot: In this Hunger Games spoof, Kantmiss Evershot \nmust fight for her life in the 75th annual Starving \nGames, where she could also win an old ham, a coupon \nfor a foot-long sub, and a partially eaten pickle.\nDirector: Jason Friedberg, Aaron Seltzer\nStars: Maiara Walsh, Brant Daugherty, Cody Christian\nRated: Rated PG-13 for crude and sexual content, comic violence, language and partial nudity\n\n\nIMDb: &lt;a href=&quot;\nhttp://www.imdb.com/title/tt2403029/&quot; rel=&quot;nofollow&quot; target=&quot;_NEW&quot;&gt;\nhttp://www.imdb.com/title/tt2403029/&lt;/a&gt;\n\n\nGeneral\nFormat                         : MPEG-4\nFile size                      : 265 MiB\nDuration                       : 1h 22mn\nOverall bit rate mode          : Variable\nOverall bit rate               : 450 Kbps\n\nVideo\nFormat                         : AVC\nBit rate                       : 408 Kbps\nWidth                          : 720 pixels\nHeight                         : 384 pixels\nDisplay aspect ratio           : 1.85:1\nFrame rate mode                : Constant\nFrame rate                     : 23.976 fps\nBit depth                      : 10 bits\nStream size                    : 240 MiB (90%)\nWriting library                : x264 core 138 r2358 9e941d1\n\nAudio\nFormat                         : AAC\nBit rate                       : 40.0 Kbps\nChannel count                  : 2 channels\nChannel positions              : Front: L R\nSampling rate                  : 48.0 KHz / 24.0 KHz\nStream size                    : 23.5 MiB (9%)\nLanguage                       : English\n\nSubtitle                       : No\n\nSource                         : 720p.BluRay.x264-SONiDO\n\nScreenshots:\n &lt;a href=&quot;\nhttp://ultraimg.com/images/Ew1uX.png&quot; rel=&quot;nofollow&quot; target=&quot;_NEW&quot;&gt;\nhttp://ultraimg.com/images/Ew1uX.png&lt;/a&gt; &lt;a href=&quot;\nhttp://ultraimg.com/images/vVr4p.png&quot; rel=&quot;nofollow&quot; target=&quot;_NEW&quot;&gt;\nhttp://ultraimg.com/images/vVr4p.png&lt;/a&gt; &lt;a href=&quot;\nhttp://ultraimg.com/images/RdEBN.png&quot; rel=&quot;nofollow&quot; target=&quot;_NEW&quot;&gt;\nhttp://ultraimg.com/images/RdEBN.png&lt;/a&gt; &lt;a href=&quot;\nhttp://ultraimg.com/images/Q2SZ.png&quot; rel=&quot;nofollow&quot; target=&quot;_NEW&quot;&gt;\nhttp://ultraimg.com/images/Q2SZ.png&lt;/a&gt; &lt;a href=&quot;\nhttp://ultraimg.com/images/09ZsA.png&quot; rel=&quot;nofollow&quot; target=&quot;_NEW&quot;&gt;\nhttp://ultraimg.com/images/09ZsA.png&lt;/a&gt; &lt;a href=&quot;\nhttp://ultraimg.com/images/LFXWj.png&quot; rel=&quot;nofollow&quot; target=&quot;_NEW&quot;&gt;\nhttp://ultraimg.com/images/LFXWj.png&lt;/a&gt;\n\n----------------------------------------------------------------------------------------------------\n\n\nEncoded using revolutionary 10bit encoding, which enables us to provide you more crispier \nand sharper images at small sizes, just make sure you follow our instructions without a fault.\nRecommend to you to use latest version of VLC player. Install K-Lite Codec Pack or shark007 codecs\nin case of any kind of problem in playback (For non-VLC Media Player users). Alternatively, install\nCore AVC codecs, the fastest decoder that there is coupled with Community Center Codec Pack and play\non Windows Media Player Classic. Check sample to be sure.\nEnjoy!\n\nEncoder Notes:Looking For Early Access To Anything You Can Provide DVDScr, R5, DVDR, BluRay, Direct\nAudio, Music Releases and Seedboxes. We require dedicated servers, so as to do more \nand fast releases of movies.\nIf You Got anything to offer please contact us at &quot;&lt;a class=&quot;__cf_email__&quot; href=&quot;/cdn-cgi/l/email-protection&quot; data-cfemail=&quot;a0d0d2c7e0c8d5d3c88ec3cfcd&quot;&gt;[email&amp;#160;protected]&lt;/a&gt;&lt;script cf-hash='f9e31' type=&quot;text/javascript&quot;&gt;\n/* &lt;![CDATA[ */!function(){try{var t=&quot;currentScript&quot;in document?document.currentScript:function(){for(var t=document.getElementsByTagName(&quot;script&quot;),e=t.length;e--;)if(t[e].getAttribute(&quot;cf-hash&quot;))return t[e]}();if(t&amp;&amp;t.previousSibling){var e,r,n,i,c=t.previousSibling,a=c.getAttribute(&quot;data-cfemail&quot;);if(a){for(e=&quot;&quot;,r=parseInt(a.substr(0,2),16),n=2;a.length-n;n+=2)i=parseInt(a.substr(n,2),16)^r,e+=String.fromCharCode(i);e=document.createTextNode(e),c.parentNode.replaceChild(e,c)}}}catch(u){}}();/* ]]&gt; */&lt;/script&gt;&quot;.\n\nFacebook Fan Page:  \nSearch P2PDL on FB and don't forget to hit like!!!\n\nSupport us, please consider a donation.\n\nFor more of our team uploads visit @              &lt;a href=&quot;\nhttp://thepiratebay.se/user/varuttee&quot; rel=&quot;nofollow&quot; target=&quot;_NEW&quot;&gt;\nhttp://thepiratebay.se/user/varuttee&lt;/a&gt;\t","torrent":{"xt":"urn:btih:99987f96c36fcebca3125c42fc273144b344f47a","amp;dn":"The+Starving+Games+2013+BRRip+480p+x264+AAC+-+VYTO+%5BP2PDL%5D","amp;tr":["udp%3A%2F%2Ftracker.openbittorrent.com%3A80","udp%3A%2F%2Fopen.demonii.com%3A1337","udp%3A%2F%2Ftracker.coppersurfer.tk%3A6969","udp%3A%2F%2Fexodus.desync.com%3A6969"],"infoHash":"99987f96c36fcebca3125c42fc273144b344f47a","infoHashBuffer":{"type":"Buffer","data":[153,152,127,150,195,111,206,188,163,18,92,66,252,39,49,68,179,68,244,122]},"announce":[],"urlList":[]}}